<svg width="1440" height="1155" viewBox="0 0 1440 1155" fill="none" xmlns="http://www.w3.org/2000/svg">
<g filter="url(#filter0_f_8_1157)">
<ellipse cx="159.11" cy="229.376" rx="159.11" ry="229.376" transform="matrix(-0.419122 -0.701014 1.13461 -0.288044 356.62 766.334)" fill="#A7C3F9"/>
</g>
<mask id="mask0_8_1157" style="mask-type:alpha" maskUnits="userSpaceOnUse" x="64" y="162" width="960" height="720">
<path d="M1023.82 307.985L423.053 162.956L102.782 507.53L64.2932 618.273L342.312 853.819L625.459 881.573L856.986 576.245L1023.82 307.985Z" fill="url(#paint0_linear_8_1157)"/>
</mask>
<g mask="url(#mask0_8_1157)">
<mask id="mask1_8_1157" style="mask-type:alpha" maskUnits="userSpaceOnUse" x="-3" y="144" width="1033" height="762">
<path d="M593.525 905.364C329.053 819.92 10.6247 692.471 -2.97747 688.784L413.99 144.71L1029.63 305.089L593.525 905.364Z" fill="url(#paint1_linear_8_1157)"/>
</mask>
<g mask="url(#mask1_8_1157)">
<path d="M253.324 521.835C298.609 462.115 431.465 442.421 516.438 469.781C601.411 497.141 694.592 557.221 646.004 621.296C621.927 653.049 649.495 709.891 578.574 733.991C506.379 758.524 397.107 712.476 354.243 698.674C269.269 671.314 208.038 581.556 253.324 521.835Z" fill="#E3BFF4"/>
<g filter="url(#filter1_f_8_1157)">
<path d="M260.059 524.894C308.627 460.845 416.97 438.7 482.941 459.941C548.911 481.183 617.161 533.223 568.593 597.272C544.526 629.011 561.118 682.301 499.672 709.432C437.122 737.051 353.765 699.351 320.486 688.636C254.516 667.395 211.491 588.943 260.059 524.894Z" fill="#E3BFF4"/>
</g>
<g filter="url(#filter2_f_8_1157)">
<path d="M261.53 522.956C315.965 451.169 445.784 429.05 527.243 455.278C608.703 481.507 695.065 543.011 640.63 614.798C613.655 650.371 645.063 714.223 572.449 743.426C498.531 773.154 387.959 725.38 346.867 712.149C265.407 685.92 207.095 594.742 261.53 522.956Z" fill="#E3BFF4"/>
</g>
<g filter="url(#filter3_f_8_1157)">
<path d="M294.44 523.21C383.736 441.692 556.2 405.883 661.592 439.817C766.983 473.751 846.805 555.42 781.521 641.514C749.17 684.177 822.447 776.006 731.528 809.796C638.976 844.192 450.365 777.102 397.2 759.984C291.809 726.05 190.996 617.644 294.44 523.21Z" fill="#E3BFF4"/>
</g>
<g filter="url(#filter4_f_8_1157)">
<path d="M338.755 508.594C409.049 415.894 610.371 373.19 713.413 406.368C816.455 439.545 891.119 523.849 820.826 616.549C785.992 662.486 783.022 730.925 690.323 768.981C595.96 807.72 361.76 766.018 309.78 749.281C206.738 716.104 268.462 601.295 338.755 508.594Z" fill="#E3BFF4"/>
</g>
<g filter="url(#filter5_f_8_1157)">
<path d="M412.264 479.138C484.906 383.341 686.326 345.588 791.717 379.522C897.109 413.457 973.086 500.196 900.444 595.993C864.447 643.465 668.118 668.438 572.867 707.941C475.905 748.152 342.064 688.815 288.899 671.697C183.508 637.763 339.623 574.935 412.264 479.138Z" fill="#E3BFF4"/>
</g>
<g filter="url(#filter6_f_8_1157)">
<path d="M340.868 545.794C404.43 461.972 598.032 434.528 703.424 468.462C808.815 502.397 889.537 582.879 825.975 666.702C794.477 708.24 784.268 767.701 694.363 800.153C602.843 833.188 467.764 775.483 414.6 758.365C309.208 724.431 277.307 629.617 340.868 545.794Z" fill="#E3BFF4"/>
</g>
</g>
</g>
<mask id="mask2_8_1157" style="mask-type:alpha" maskUnits="userSpaceOnUse" x="240" y="314" width="1160" height="527">
<path d="M240.664 758.496C275.162 567.459 319.23 323.763 319.79 314.161L1399.66 395.815L1320.54 840.15L240.664 758.496Z" fill="url(#paint2_linear_8_1157)"/>
</mask>
<g mask="url(#mask2_8_1157)">
<path d="M808.718 430.172C930.514 439.382 1020.73 515.556 1009.81 576.906C998.881 638.256 935.24 715.039 804.564 705.157C739.807 700.261 653.878 735.326 582.382 698.958C509.602 661.936 542.31 579.609 547.822 548.661C558.747 487.311 686.923 420.963 808.718 430.172Z" fill="#FF3E80" fill-opacity="0.5"/>
<g filter="url(#filter7_f_8_1157)">
<path d="M806.322 435.316C936.945 445.193 1019.95 511.083 1010.56 563.817C1001.17 616.552 939.566 682.03 808.943 672.153C744.213 667.258 659.097 697.938 586.868 665.862C513.342 633.211 543.951 562.633 548.688 536.032C558.079 483.297 675.699 425.439 806.322 435.316Z" fill="#FF3E80" fill-opacity="0.5"/>
</g>
<g filter="url(#filter8_f_8_1157)">
<path d="M810.28 435.616C956.683 446.687 1048.55 527.128 1036.97 592.143C1025.39 657.158 954.96 738.302 808.557 727.232C736.007 721.746 638.799 766.294 558.369 727.4C476.494 687.808 513.216 595.145 519.056 562.348C530.634 497.333 663.877 424.546 810.28 435.616Z" fill="#FF3E80" fill-opacity="0.5"/>
</g>
<g filter="url(#filter9_f_8_1157)">
<path d="M825.805 444.594C1003.72 474.209 1138.43 569.855 1124.88 645.947C1111.33 722.038 1004.94 797.36 829.355 784.084C742.346 777.504 615.726 851.978 519.1 806.27C420.738 759.74 463.146 657.77 469.982 619.385C483.532 543.294 619.701 410.286 825.805 444.594Z" fill="#FF3E80" fill-opacity="0.5"/>
</g>
<g filter="url(#filter10_f_8_1157)">
<path d="M881.222 479.993C1070.28 494.289 1215.57 604.632 1202.33 679.027C1189.08 753.423 1075.97 826.378 886.918 812.083C793.232 804.999 674.424 824.79 569.714 779.326C463.123 733.046 506.956 633.528 513.639 595.999C526.887 521.604 692.166 465.698 881.222 479.993Z" fill="#FF3E80" fill-opacity="0.5"/>
</g>
<g filter="url(#filter11_f_8_1157)">
<path d="M949.515 515.253C1144.89 530.026 1295.22 643.016 1281.67 719.107C1268.12 795.199 1151.39 869.739 956.02 854.966C859.204 847.645 736.48 867.796 628.203 821.207C517.98 773.78 563.086 672.014 569.921 633.629C583.471 557.538 754.144 500.48 949.515 515.253Z" fill="#FF3E80" fill-opacity="0.5"/>
</g>
<g filter="url(#filter12_f_8_1157)">
<path d="M804.724 492.041C975.674 504.968 1104.99 616.368 1091.44 692.459C1077.89 768.551 973.915 844.056 802.965 831.13C718.251 824.724 611.789 837.187 517.889 791.685C422.302 745.365 464.08 643.347 470.915 604.962C484.466 528.871 633.774 479.115 804.724 492.041Z" fill="#FF3E80" fill-opacity="0.5"/>
</g>
</g>
<mask id="mask3_8_1157" style="mask-type:alpha" maskUnits="userSpaceOnUse" x="320" y="324" width="754" height="670">
<path d="M320.474 374.574C620.781 351.292 948.573 325.96 963.41 324.156L1073.64 943.048L430.7 993.466L320.474 374.574Z" fill="url(#paint3_linear_8_1157)"/>
</mask>
<g mask="url(#mask3_8_1157)">
<path d="M933.644 598.786C941.655 642.16 879.551 684.026 817.837 688.866C756.122 693.705 671.889 682.499 663.295 635.962C659.036 612.901 612.61 588.135 638.283 558.326C664.417 527.982 749.759 527.724 780.891 525.282C842.606 520.443 925.634 555.412 933.644 598.786Z" fill="#E3BFF4"/>
<g filter="url(#filter13_f_8_1157)">
<path d="M928.262 598.681C936.853 645.199 889.558 682.682 841.645 686.439C793.731 690.196 727.612 677.576 719.021 631.058C714.764 608.007 676.32 582.627 695.122 553.368C714.262 523.584 780.78 524.799 804.95 522.903C852.864 519.146 919.671 552.163 928.262 598.681Z" fill="#E3BFF4"/>
</g>
<g filter="url(#filter14_f_8_1157)">
<path d="M928.522 600.089C938.151 652.227 879.05 694.715 819.888 699.354C760.725 703.994 679.451 690.411 669.823 638.274C665.051 612.437 612.659 584.721 636.452 551.715C660.672 518.115 747.679 518.5 777.524 516.16C836.686 511.521 918.893 547.952 928.522 600.089Z" fill="#E3BFF4"/>
</g>
<g filter="url(#filter15_f_8_1157)">
<path d="M910.313 607.642C906.158 673.271 831.18 733.243 754.635 739.246C678.091 745.248 589.309 719.065 577.761 656.537C572.039 625.551 481.257 592.261 512.576 552.458C544.457 511.94 684.944 504.689 723.557 501.661C800.101 495.659 915.126 531.615 910.313 607.642Z" fill="#E3BFF4"/>
</g>
<g filter="url(#filter16_f_8_1157)">
<path d="M894.027 626.024C906.461 693.351 819.433 763.854 744.595 769.723C669.758 775.592 582.357 746.757 569.923 679.431C563.761 646.067 527.719 607.797 557.666 565.236C588.151 521.91 739.693 490.064 777.445 487.104C852.283 481.235 881.593 558.698 894.027 626.024Z" fill="#E3BFF4"/>
</g>
<g filter="url(#filter17_f_8_1157)">
<path d="M869.882 659.379C882.731 728.955 792.925 796.763 716.38 802.765C639.836 808.768 550.374 778.903 537.525 709.327C531.157 674.848 625.203 615.248 655.756 571.295C686.857 526.554 793.005 527.849 831.617 524.821C908.162 518.818 857.033 589.803 869.882 659.379Z" fill="#E3BFF4"/>
</g>
<g filter="url(#filter18_f_8_1157)">
<path d="M872.39 606.094C883.633 666.973 792.443 727.293 715.899 733.296C639.355 739.298 550.732 713.977 539.489 653.098C533.917 622.93 506.791 587.896 538.289 549.065C570.353 509.535 676.282 509.645 714.895 506.617C791.439 500.614 861.146 545.215 872.39 606.094Z" fill="#E3BFF4"/>
</g>
</g>
<defs>
<filter id="filter0_f_8_1157" x="32.9248" y="210.531" width="1034.52" height="756.389" filterUnits="userSpaceOnUse" color-interpolation-filters="sRGB">
<feFlood flood-opacity="0" result="BackgroundImageFix"/>
<feBlend mode="normal" in="SourceGraphic" in2="BackgroundImageFix" result="shape"/>
<feGaussianBlur stdDeviation="124.268" result="effect1_foregroundBlur_8_1157"/>
</filter>
<filter id="filter1_f_8_1157" x="229.283" y="442.178" width="365.685" height="287.114" filterUnits="userSpaceOnUse" color-interpolation-filters="sRGB">
<feFlood flood-opacity="0" result="BackgroundImageFix"/>
<feBlend mode="normal" in="SourceGraphic" in2="BackgroundImageFix" result="shape"/>
<feGaussianBlur stdDeviation="4.97072" result="effect1_foregroundBlur_8_1157"/>
</filter>
<filter id="filter2_f_8_1157" x="205.537" y="409.838" width="486.925" height="377.959" filterUnits="userSpaceOnUse" color-interpolation-filters="sRGB">
<feFlood flood-opacity="0" result="BackgroundImageFix"/>
<feBlend mode="normal" in="SourceGraphic" in2="BackgroundImageFix" result="shape"/>
<feGaussianBlur stdDeviation="17.3975" result="effect1_foregroundBlur_8_1157"/>
</filter>
<filter id="filter3_f_8_1157" x="201.385" y="377.357" width="653.467" height="491.817" filterUnits="userSpaceOnUse" color-interpolation-filters="sRGB">
<feFlood flood-opacity="0" result="BackgroundImageFix"/>
<feBlend mode="normal" in="SourceGraphic" in2="BackgroundImageFix" result="shape"/>
<feGaussianBlur stdDeviation="24.8536" result="effect1_foregroundBlur_8_1157"/>
</filter>
<filter id="filter4_f_8_1157" x="120.908" y="260.992" width="861.659" height="658.19" filterUnits="userSpaceOnUse" color-interpolation-filters="sRGB">
<feFlood flood-opacity="0" result="BackgroundImageFix"/>
<feBlend mode="normal" in="SourceGraphic" in2="BackgroundImageFix" result="shape"/>
<feGaussianBlur stdDeviation="67.1047" result="effect1_foregroundBlur_8_1157"/>
</filter>
<filter id="filter5_f_8_1157" x="-79.6015" y="34.2496" width="1341.77" height="1020.44" filterUnits="userSpaceOnUse" color-interpolation-filters="sRGB">
<feFlood flood-opacity="0" result="BackgroundImageFix"/>
<feBlend mode="normal" in="SourceGraphic" in2="BackgroundImageFix" result="shape"/>
<feGaussianBlur stdDeviation="166.519" result="effect1_foregroundBlur_8_1157"/>
</filter>
<filter id="filter6_f_8_1157" x="154.174" y="300.192" width="848.388" height="664.083" filterUnits="userSpaceOnUse" color-interpolation-filters="sRGB">
<feFlood flood-opacity="0" result="BackgroundImageFix"/>
<feBlend mode="normal" in="SourceGraphic" in2="BackgroundImageFix" result="shape"/>
<feGaussianBlur stdDeviation="77.0461" result="effect1_foregroundBlur_8_1157"/>
</filter>
<filter id="filter7_f_8_1157" x="528.417" y="424.265" width="492.809" height="266.373" filterUnits="userSpaceOnUse" color-interpolation-filters="sRGB">
<feFlood flood-opacity="0" result="BackgroundImageFix"/>
<feBlend mode="normal" in="SourceGraphic" in2="BackgroundImageFix" result="shape"/>
<feGaussianBlur stdDeviation="4.97072" result="effect1_foregroundBlur_8_1157"/>
</filter>
<filter id="filter8_f_8_1157" x="471.017" y="399.697" width="601.727" height="378.589" filterUnits="userSpaceOnUse" color-interpolation-filters="sRGB">
<feFlood flood-opacity="0" result="BackgroundImageFix"/>
<feBlend mode="normal" in="SourceGraphic" in2="BackgroundImageFix" result="shape"/>
<feGaussianBlur stdDeviation="17.3975" result="effect1_foregroundBlur_8_1157"/>
</filter>
<filter id="filter9_f_8_1157" x="405.344" y="389.34" width="770.181" height="481.563" filterUnits="userSpaceOnUse" color-interpolation-filters="sRGB">
<feFlood flood-opacity="0" result="BackgroundImageFix"/>
<feBlend mode="normal" in="SourceGraphic" in2="BackgroundImageFix" result="shape"/>
<feGaussianBlur stdDeviation="24.8536" result="effect1_foregroundBlur_8_1157"/>
</filter>
<filter id="filter10_f_8_1157" x="364.862" y="343.543" width="972.513" height="604.557" filterUnits="userSpaceOnUse" color-interpolation-filters="sRGB">
<feFlood flood-opacity="0" result="BackgroundImageFix"/>
<feBlend mode="normal" in="SourceGraphic" in2="BackgroundImageFix" result="shape"/>
<feGaussianBlur stdDeviation="67.1047" result="effect1_foregroundBlur_8_1157"/>
</filter>
<filter id="filter11_f_8_1157" x="221.983" y="179.875" width="1393.58" height="1010.01" filterUnits="userSpaceOnUse" color-interpolation-filters="sRGB">
<feFlood flood-opacity="0" result="BackgroundImageFix"/>
<feBlend mode="normal" in="SourceGraphic" in2="BackgroundImageFix" result="shape"/>
<feGaussianBlur stdDeviation="166.519" result="effect1_foregroundBlur_8_1157"/>
</filter>
<filter id="filter12_f_8_1157" x="301.877" y="335.908" width="944.627" height="650.767" filterUnits="userSpaceOnUse" color-interpolation-filters="sRGB">
<feFlood flood-opacity="0" result="BackgroundImageFix"/>
<feBlend mode="normal" in="SourceGraphic" in2="BackgroundImageFix" result="shape"/>
<feGaussianBlur stdDeviation="77.0461" result="effect1_foregroundBlur_8_1157"/>
</filter>
<filter id="filter13_f_8_1157" x="683.455" y="516.092" width="252.344" height="177.489" filterUnits="userSpaceOnUse" color-interpolation-filters="sRGB">
<feFlood flood-opacity="0" result="BackgroundImageFix"/>
<feBlend mode="normal" in="SourceGraphic" in2="BackgroundImageFix" result="shape"/>
<feGaussianBlur stdDeviation="3.25995" result="effect1_foregroundBlur_8_1157"/>
</filter>
<filter id="filter14_f_8_1157" x="607.465" y="492.943" width="344.913" height="230.08" filterUnits="userSpaceOnUse" color-interpolation-filters="sRGB">
<feFlood flood-opacity="0" result="BackgroundImageFix"/>
<feBlend mode="normal" in="SourceGraphic" in2="BackgroundImageFix" result="shape"/>
<feGaussianBlur stdDeviation="11.4098" result="effect1_foregroundBlur_8_1157"/>
</filter>
<filter id="filter15_f_8_1157" x="473.422" y="468.417" width="469.637" height="304.264" filterUnits="userSpaceOnUse" color-interpolation-filters="sRGB">
<feFlood flood-opacity="0" result="BackgroundImageFix"/>
<feBlend mode="normal" in="SourceGraphic" in2="BackgroundImageFix" result="shape"/>
<feGaussianBlur stdDeviation="16.2998" result="effect1_foregroundBlur_8_1157"/>
</filter>
<filter id="filter16_f_8_1157" x="457.903" y="398.771" width="525.337" height="459.713" filterUnits="userSpaceOnUse" color-interpolation-filters="sRGB">
<feFlood flood-opacity="0" result="BackgroundImageFix"/>
<feBlend mode="normal" in="SourceGraphic" in2="BackgroundImageFix" result="shape"/>
<feGaussianBlur stdDeviation="44.0093" result="effect1_foregroundBlur_8_1157"/>
</filter>
<filter id="filter17_f_8_1157" x="318.8" y="306.048" width="774.476" height="715.885" filterUnits="userSpaceOnUse" color-interpolation-filters="sRGB">
<feFlood flood-opacity="0" result="BackgroundImageFix"/>
<feBlend mode="normal" in="SourceGraphic" in2="BackgroundImageFix" result="shape"/>
<feGaussianBlur stdDeviation="109.208" result="effect1_foregroundBlur_8_1157"/>
</filter>
<filter id="filter18_f_8_1157" x="422.263" y="405.017" width="552.131" height="430.196" filterUnits="userSpaceOnUse" color-interpolation-filters="sRGB">
<feFlood flood-opacity="0" result="BackgroundImageFix"/>
<feBlend mode="normal" in="SourceGraphic" in2="BackgroundImageFix" result="shape"/>
<feGaussianBlur stdDeviation="50.5292" result="effect1_foregroundBlur_8_1157"/>
</filter>
<linearGradient id="paint0_linear_8_1157" x1="462.873" y1="469.337" x2="405.891" y2="690.215" gradientUnits="userSpaceOnUse">
<stop stop-color="#C4C4C4"/>
<stop offset="0.943414" stop-color="#C4C4C4" stop-opacity="0"/>
</linearGradient>
<linearGradient id="paint1_linear_8_1157" x1="351.828" y1="554.591" x2="589.421" y2="784.974" gradientUnits="userSpaceOnUse">
<stop stop-color="#C4C4C4"/>
<stop offset="1" stop-color="#C4C4C4" stop-opacity="0"/>
</linearGradient>
<linearGradient id="paint2_linear_8_1157" x1="758.754" y1="418.691" x2="741.418" y2="735.852" gradientUnits="userSpaceOnUse">
<stop stop-color="#C4C4C4"/>
<stop offset="1" stop-color="#C4C4C4" stop-opacity="0"/>
</linearGradient>
<linearGradient id="paint3_linear_8_1157" x1="829.406" y1="587.176" x2="430.319" y2="596.48" gradientUnits="userSpaceOnUse">
<stop stop-color="#C4C4C4"/>
<stop offset="1" stop-color="#C4C4C4" stop-opacity="0"/>
</linearGradient>
</defs>
</svg>
